<svg width="63" height="64" viewBox="0 0 63 64" fill="none" xmlns="http://www.w3.org/2000/svg">
<path fill-rule="evenodd" clip-rule="evenodd" d="M6.22619 2.76665C8.95783 -0.00834852 16.1684 2.81665 19.7942 6.49998C22.7883 9.54998 23.2231 13.0583 21.7383 15.75C21.2789 16.6 21.4102 16.9333 21.7547 17.275C21.927 17.45 22.091 17.6166 22.2633 17.7833L22.5176 17.525C22.6488 17.3917 22.8375 17.375 22.9442 17.475C23.0508 17.5833 23.0262 17.7833 22.9031 17.9083L22.6488 18.1667C22.7801 18.2917 22.9113 18.4167 23.0426 18.5417L23.5184 18.0583C23.6906 17.8917 24.0106 17.9417 24.2403 18.175C24.4699 18.4083 24.5274 18.7417 24.3633 18.9083L23.8957 19.3833C26.5453 21.9667 29.2278 24.5167 31.9348 27.025C34.3875 24.7416 36.8156 22.4417 39.2192 20.1083L38.8008 19.6833C38.6367 19.5167 38.686 19.1917 38.9156 18.95C39.1535 18.7167 39.4735 18.6667 39.6375 18.8333L40.0723 19.275C40.2035 19.15 40.3348 19.025 40.466 18.8917L40.261 18.6833C40.1297 18.5583 40.1133 18.3583 40.2199 18.25C40.3266 18.15 40.5153 18.1667 40.6465 18.3L40.8598 18.5083C41.0074 18.3667 41.1551 18.2167 41.3028 18.075C41.6473 17.7333 41.7785 17.4 41.3274 16.5583C37.882 10.1917 49.9324 3.71665 54.1242 0.81665L43.2305 12.0667C42.9352 12.3583 42.9352 12.8417 43.2305 13.1416C43.5176 13.4416 43.9852 13.4166 44.2887 13.1416L55.9453 2.65832L45.3715 14.2416C45.0926 14.55 45.1418 15.0833 45.4289 15.3833C45.7242 15.675 46.2492 15.725 46.5528 15.4416L57.9797 4.71665L47.5781 16.475C47.2992 16.7917 47.2828 17.2583 47.5781 17.5583C47.8653 17.8583 48.341 17.85 48.6363 17.5583L59.7598 6.50832C57.0938 10.5 50.3672 22.95 44.0836 19.375C43.2469 18.9083 42.9188 19.0417 42.5824 19.3917C42.443 19.5417 42.2953 19.6833 42.1559 19.8333L42.3774 20.0583C42.5086 20.1917 42.525 20.3833 42.4184 20.4917C42.3199 20.6 42.1231 20.5833 42 20.45L41.7785 20.2333C41.6555 20.3583 41.5242 20.4917 41.4012 20.625L41.8524 21.0833C42.0164 21.25 41.9672 21.575 41.7375 21.8083C41.4996 22.05 41.1797 22.1 41.0156 21.9333L40.5809 21.4917C38.3004 23.9 36.0528 26.325 33.8379 28.7833C38.5465 33.1 43.3289 37.325 48.136 41.475L48.3164 41.2916C48.6281 40.9833 49.1695 41.025 49.5223 41.3916C49.8832 41.75 49.9242 42.3 49.6207 42.6166L49.5223 42.7083C51.4418 44.9583 47.816 48.7666 45.5438 46.7583L45.4781 46.8166C45.1746 47.1333 44.6332 47.0916 44.2723 46.725C43.9113 46.3583 43.8703 45.8083 44.182 45.5L44.3215 45.3583C40.2117 40.525 36.0692 35.7167 31.861 30.9917C27.4231 35.9666 23.0918 41.025 18.8262 46.1166L18.982 46.275C19.2856 46.5833 19.2445 47.1416 18.8918 47.5C18.5309 47.8666 17.9895 47.9083 17.6778 47.5916L17.6203 47.5333C15.3973 49.6583 11.4844 45.8166 13.6336 43.4833L13.5434 43.3916C13.2399 43.075 13.2809 42.525 13.6336 42.1666C13.9945 41.8 14.536 41.7583 14.8395 42.0666L15.0199 42.25C20.0485 37.8333 25.0442 33.3833 29.9578 28.8583C27.5051 26.1333 25.036 23.4333 22.534 20.7667L22.1403 21.1583C21.9844 21.325 21.6563 21.2667 21.4266 21.0333C21.1969 20.8 21.1395 20.475 21.3035 20.3083L21.7137 19.9C21.5824 19.7667 21.4594 19.6333 21.3363 19.5L21.1641 19.675C21.0328 19.8083 20.8442 19.825 20.7375 19.7167C20.6309 19.6083 20.6555 19.4166 20.7785 19.2833L20.959 19.1C20.7949 18.925 20.6227 18.75 20.4586 18.575C20.1223 18.225 19.7942 18.0917 18.9656 18.55C16.316 20.0333 12.8871 19.5833 9.90119 16.55C6.27541 12.8667 3.49455 5.54165 6.22619 2.76665ZM31.9102 27.05L31.5 27.425C27.0047 23 23.6168 19.9667 23.3789 20.2083C23.141 20.45 26.1024 23.8666 30.4336 28.4166C30.9258 27.9583 31.418 27.5083 31.9102 27.05ZM33.3785 29.2917C33.0422 29.6667 32.7059 30.0416 32.3613 30.425C32.9356 31.0166 33.5262 31.6166 34.1332 32.2333C40.3676 38.5667 45.6668 43.4583 45.9621 43.1583C46.2574 42.85 41.4504 37.4667 35.216 31.1333C34.5926 30.5 33.9774 29.8833 33.3785 29.2917ZM45.8801 19.025C45.2403 19.4667 43.9278 18.975 42.8449 17.8666C41.7539 16.7583 41.2699 15.425 41.6965 14.775C41.9508 15.5167 42.5496 16.4417 43.3946 17.3C44.2395 18.1583 45.15 18.7667 45.8801 19.025ZM28.0629 31.6583C34.2973 25.325 39.5965 20.4333 39.9 20.7333C40.1953 21.0333 35.3801 26.4166 29.1457 32.7583C22.9113 39.0917 17.6121 43.9833 17.3168 43.675C17.0133 43.375 21.8285 37.9916 28.0629 31.6583ZM21.4102 13.875C21.8449 14.5167 21.361 15.85 20.2699 16.9583C19.1789 18.0667 17.8664 18.5583 17.2266 18.125C17.9649 17.8667 18.8672 17.2583 19.7121 16.3917C20.557 15.5333 21.1559 14.6166 21.4102 13.875Z" fill="#FFC0CB"/>
<path d="M14.1915 22.9082L14.7411 21.1666C20.4833 22.7666 26.3485 24.1832 32.3532 24.1166C38.1446 24.0582 43.6653 22.5499 49.1204 20.7166C49.4239 21.5332 49.711 22.3832 50.1868 23.1166C51.2696 22.6916 52.459 22.1499 53.5665 21.6165C54.879 25.8082 54.7723 29.8749 53.8782 34.1332C52.254 34.8499 50.4165 34.4916 48.5544 33.9416C48.2508 35.0249 47.7833 36.0166 47.1844 36.9666C41.7129 35.0332 36.1758 33.6749 30.3434 34.0332C25.2083 34.3499 19.9993 35.8666 13.5188 38.4916L12.7559 38.7999L12.6821 37.9666L12.6575 37.6332C12.5098 35.9249 12.2965 33.5082 11.8125 31.7416L9.67974 31.8416L9.5813 31.3082C9.327 29.7832 9.17114 28.0666 9.17114 26.4249C9.17114 24.9582 9.29419 23.5415 9.5977 22.3582L9.74536 21.7499C11.2301 22.1999 12.6657 22.6582 14.1915 22.9082Z" fill="#FFC0CB"/>
<path d="M35.1749 22.3667C35.7409 26.8084 35.7245 31.2501 35.1749 35.6917C33.0011 36.1334 30.7945 36.1334 28.5386 35.6917C28.1613 31.3334 28.1284 26.9001 28.5386 22.3667C30.7945 22.0167 33.0011 22.0167 35.1749 22.3667Z" fill="#FFC0CB"/>
<path d="M34.6007 23.0666C35.0273 26.6749 35.0519 30.2749 34.7156 33.8749C34.6007 35.1332 33.7066 33.8249 33.5999 32.8666L33.5261 31.5332L33.2882 32.8666C32.9191 34.0832 32.1808 33.8666 32.0906 32.5999L31.9347 30.9416L31.7788 32.5999C31.5328 33.7582 30.7945 33.9749 30.5648 32.8666L30.3351 31.5332L30.2531 32.8666C30.1956 33.6832 29.1374 35.1582 29.0472 33.8082C28.8257 30.2916 28.8339 26.7166 29.1292 23.0666C29.4738 23.0166 29.8101 22.9666 30.1464 22.9249L30.2038 23.8832L30.2859 25.2083L30.5156 23.8832L30.696 22.8749C30.9996 22.8583 31.3031 22.8416 31.6066 22.8333L31.7296 24.1416L31.8855 25.8083L32.0413 24.1416L32.1644 22.8333C32.4679 22.8416 32.7632 22.8583 33.0667 22.8749L33.239 23.8832L33.4769 25.2083L33.5507 23.8832L33.6081 22.9249C33.9363 22.9666 34.2726 23.0166 34.6007 23.0666Z" fill="white"/>
<path fill-rule="evenodd" clip-rule="evenodd" d="M10.1882 22.5081C15.8319 24.2081 21.6889 25.0248 27.5214 25.7415C23.7479 24.9998 20.0319 24.3248 16.4636 23.5081C14.9214 23.1581 15.0444 22.4748 15.1429 21.9165C20.2452 23.3415 24.4452 24.2331 28.3745 24.5748C28.3417 25.0581 28.3089 25.5415 28.3007 26.0248C28.2761 26.8498 27.8659 26.8915 27.2835 26.8248C25.7905 26.6665 24.1745 26.2998 22.6733 25.8248C24.1417 26.6581 25.8479 27.2165 27.8003 27.7165C28.2596 27.8415 28.0956 28.5498 27.7511 28.6498C26.7011 28.9748 25.5772 29.1581 24.4124 29.2581C25.5854 29.5498 26.4714 29.4915 27.8577 29.6331C28.2761 29.6831 28.1284 30.2665 27.8659 30.3831C26.1761 31.1748 24.7733 31.6331 23.0343 32.2998C24.5764 32.1915 26.0694 31.9414 27.4886 31.4915C28.8093 31.0748 29.285 33.3498 25.9956 33.9498C23.1573 34.4664 20.196 35.3248 16.9475 36.5081C15.635 36.9831 13.978 37.5581 13.2233 36.9998C15.6514 35.8914 18.4979 34.9831 21.2788 34.2581C19.1952 34.5414 17.3413 34.8331 15.2905 35.3664C13.5104 35.8164 13.0264 34.7331 12.887 33.3914C12.7557 32.0748 13.5186 31.7581 15.1675 31.6748C18.3913 31.5081 21.1393 31.6248 24.1745 30.6748C19.7448 31.2831 15.5038 30.4998 10.6147 30.6248C10.2538 30.6331 10.2374 30.2581 10.5409 30.1748C12.1651 29.7415 13.5514 30.4164 15.2659 30.2915C13.5432 29.9998 11.8452 29.2331 9.99129 29.2581C9.73699 27.0831 9.64676 24.6498 10.1882 22.5081ZM35.4128 24.5831C39.5061 24.2165 43.6979 23.1915 48.7593 21.4915C49.0464 22.5665 49.2761 23.5748 47.9061 24.0665C46.3147 24.6331 44.4116 25.2998 41.0319 26.4248C44.4444 25.8248 49.8585 24.4665 52.9839 22.8498C53.1807 23.2248 52.705 23.5165 52.0897 23.7998C50.2112 24.6581 48.144 25.3831 46.1096 25.9831C48.5788 25.5998 50.6706 25.1831 53.3284 24.2831C53.8944 27.0998 53.8206 29.8581 53.3776 32.5165C50.203 32.4415 47.7667 30.6748 44.6003 31.1248C47.578 31.2081 51.1136 33.8331 53.2464 33.5331C48.6854 34.3498 47.1514 30.8748 38.087 30.6081C41.7374 31.0248 44.4116 31.9414 46.0522 32.6831C47.7749 33.4581 47.6764 34.2164 47.5124 35.0831C45.8472 34.4248 43.9194 34.0831 41.8112 34.1665C44.0343 34.6831 45.7159 35.1581 47.094 35.9498C46.8479 36.2664 45.2319 35.6414 44.6495 35.4581C42.2214 34.6915 39.9573 34.1331 37.7671 33.7915C35.4374 33.4331 34.6745 30.9665 36.3233 31.5498C37.6112 31.9998 39.0386 32.0748 40.146 32.2581C38.653 31.6581 37.2831 31.1581 35.9624 30.3165C35.6014 30.0831 35.5276 29.3415 35.9624 29.2831C38.4315 28.9415 40.4577 28.5081 42.7956 27.8331C40.4085 28.2415 38.3659 28.3248 35.9542 28.2665C35.6425 28.2581 35.6507 27.6581 35.946 27.5498C37.4882 26.9915 38.6284 26.3915 40.0639 25.5831C38.8417 25.9998 37.6276 26.3331 36.3972 26.5415C35.9624 26.6165 35.5194 26.4665 35.503 25.9415C35.4948 25.4915 35.4456 25.0331 35.4128 24.5831Z" fill="white"/>
<path fill-rule="evenodd" clip-rule="evenodd" d="M19.0805 38.2333C10.5 39.2833 4.97113 42.7749 4.97113 44.8999C4.97113 47.0166 6.09496 47.4083 8.05551 48.4666C6.9891 47.6999 6.39847 47.5916 6.39847 46.0083C6.39847 44.4166 10.3196 41.5166 16.6196 40.3166L19.0805 38.2333ZM55.8961 48.4666C58.0125 47.4083 59.2184 46.1916 59.2184 44.8999C59.2184 42.0999 53.591 39.6666 45.2895 38.3916C46.2 39.1916 47.1106 39.9833 48.0211 40.7666C50.6215 41.3083 57.6844 42.7249 57.6844 46.0083C57.6844 46.8749 57.0528 47.6999 55.8961 48.4666ZM59.6942 51.4749C56.2899 55.7166 45.1993 58.8249 32.0496 58.8249C18.9 58.8249 7.80941 55.7166 4.40511 51.4749C9.71254 54.6333 20.1059 56.7749 32.0496 56.7749C43.9934 56.7749 54.3868 54.6333 59.6942 51.4749ZM58.8246 41.8166C61.1953 43.1666 62.5407 44.7166 62.5407 46.3666C62.5407 51.6083 48.9071 55.8666 32.0907 55.8666C15.2825 55.8666 1.64886 51.6083 1.64886 46.3666C1.64886 44.7166 2.99418 43.1666 5.36488 41.8166C4.07699 42.7833 3.36332 43.8416 3.36332 44.9499C3.36332 49.6666 16.234 53.4916 32.0907 53.4916C47.9555 53.4916 60.8262 49.6666 60.8262 44.9499C60.8262 43.8416 60.1125 42.7833 58.8246 41.8166ZM37.2094 37.6583C35.3637 37.5249 33.4442 37.4583 31.459 37.4583C29.802 37.4583 28.1778 37.5083 26.6028 37.5999C26.0942 38.2583 25.5774 38.9166 25.0606 39.5666C27.095 39.3999 29.2442 39.3166 31.459 39.3166C34.0184 39.3166 36.4793 39.4333 38.7844 39.6499C38.2594 38.9833 37.7344 38.3249 37.2094 37.6583Z" fill="#FFC0CB"/>
</svg>
