<svg width="103" height="729" viewBox="0 0 103 729" fill="none" xmlns="http://www.w3.org/2000/svg">
<path fill-rule="evenodd" clip-rule="evenodd" d="M295.135 7.82205C366.606 -20.1525 448.251 40.6574 506.698 128.679C561.427 211.101 562.377 348.807 595.371 459.976C632.001 583.395 724.193 683.923 710.289 814.641C696.438 944.861 591.721 956.101 533.92 1037.71C477.227 1117.75 451.352 1291.85 375.629 1287.13C298.867 1282.34 266.96 1096.32 201.906 1017.01C141.327 943.165 43.7476 957.544 11.1303 842.791C-21.3426 728.546 25.5232 604.106 53.1468 493.655C75.9607 402.435 118.228 340.701 155.332 266.208C200.989 174.545 225.799 34.961 295.135 7.82205Z" fill="#FFC0CB"/>
</svg>
