<svg width="101" height="616" viewBox="0 0 101 616" fill="none" xmlns="http://www.w3.org/2000/svg">
<path fill-rule="evenodd" clip-rule="evenodd" d="M284.914 -349.485C378.816 -409.836 500.328 -326.144 606.445 -291.437C695.841 -262.199 781.671 -228.368 850.687 -164.442C922.505 -97.9204 976.461 -16.5231 1004.51 77.27C1036.23 183.342 1064.83 299.819 1019.74 400.902C973.65 504.228 876.3 590.004 765.538 612.992C662.06 634.469 576.585 531.58 472.273 514.528C367.351 497.376 251.989 569.473 161.155 514.192C65.3803 455.904 -6.12791 339.628 1.04142 227.738C8.06001 118.201 147.437 70.9195 195.868 -27.5584C246.231 -129.966 188.927 -287.794 284.914 -349.485Z" fill="#FFC0CB"/>
</svg>
